G04*
G04 #@! TF.GenerationSoftware,Altium Limited,Altium Designer,20.0.13 (296)*
G04*
G04 Layer_Color=255*
%FSLAX25Y25*%
%MOIN*%
G70*
G01*
G75*
%ADD16R,0.08346X0.05512*%
%ADD17R,0.02362X0.05709*%
%ADD18R,0.03622X0.07874*%
%ADD19R,0.13780X0.07874*%
%ADD20R,0.04331X0.05512*%
%ADD21R,0.05512X0.04331*%
%ADD22R,0.05512X0.04724*%
%ADD23R,0.04921X0.03937*%
%ADD24R,0.04724X0.05512*%
%ADD25R,0.09449X0.12992*%
%ADD26R,0.04724X0.02362*%
%ADD27R,0.07480X0.05906*%
%ADD48R,0.05118X0.01181*%
%ADD52O,0.06000X0.05000*%
%ADD53C,0.07087*%
%ADD54O,0.07087X0.03937*%
%ADD55O,0.07874X0.03937*%
D16*
X124500Y-57016D02*
D03*
Y-72984D02*
D03*
D17*
X172000Y-57126D02*
D03*
X168260Y-47874D02*
D03*
X175740D02*
D03*
D18*
X147779Y-38347D02*
D03*
X137937D02*
D03*
X130063D02*
D03*
X120221D02*
D03*
D19*
X103980Y-30670D02*
D03*
Y-6654D02*
D03*
X164020D02*
D03*
Y-30670D02*
D03*
D20*
X181453Y-39000D02*
D03*
X175547D02*
D03*
X49000Y-32000D02*
D03*
X54905D02*
D03*
D21*
X144000Y-81047D02*
D03*
Y-86953D02*
D03*
X155500Y-62453D02*
D03*
Y-56547D02*
D03*
X147000Y-62453D02*
D03*
Y-56547D02*
D03*
X138500Y-62453D02*
D03*
Y-56547D02*
D03*
X120000Y-87953D02*
D03*
Y-82047D02*
D03*
X76906Y-48740D02*
D03*
Y-42835D02*
D03*
D22*
X64000Y-41457D02*
D03*
Y-48543D02*
D03*
X48906D02*
D03*
Y-41457D02*
D03*
X133000Y-80957D02*
D03*
Y-88043D02*
D03*
D23*
X90000Y-85162D02*
D03*
Y-76500D02*
D03*
X55000Y-84000D02*
D03*
Y-75338D02*
D03*
X44500Y-75500D02*
D03*
Y-84162D02*
D03*
X76000D02*
D03*
Y-75500D02*
D03*
X65500D02*
D03*
Y-84162D02*
D03*
D24*
X110043Y-76500D02*
D03*
X102957D02*
D03*
X44819Y-65000D02*
D03*
X51906D02*
D03*
X65957Y-65000D02*
D03*
X73043D02*
D03*
X110043Y-86000D02*
D03*
X102957D02*
D03*
D25*
X98905Y-57500D02*
D03*
D26*
X110355Y-50000D02*
D03*
Y-55000D02*
D03*
Y-60000D02*
D03*
Y-65000D02*
D03*
X87455D02*
D03*
Y-60000D02*
D03*
Y-55000D02*
D03*
Y-50000D02*
D03*
D27*
X89848Y-7500D02*
D03*
X58352D02*
D03*
D48*
X30413Y-43311D02*
D03*
Y-44492D02*
D03*
Y-46461D02*
D03*
Y-47642D02*
D03*
Y-49610D02*
D03*
Y-51579D02*
D03*
Y-53547D02*
D03*
Y-55516D02*
D03*
Y-57484D02*
D03*
Y-59453D02*
D03*
Y-63390D02*
D03*
Y-68508D02*
D03*
Y-69689D02*
D03*
Y-61420D02*
D03*
X30413Y-65358D02*
D03*
Y-66539D02*
D03*
D52*
X44100Y-4600D02*
D03*
X33000D02*
D03*
D53*
X162157Y-75500D02*
D03*
X172000D02*
D03*
D54*
X11397Y-39492D02*
D03*
Y-73508D02*
D03*
D55*
X27854D02*
D03*
Y-39492D02*
D03*
M02*
