M48
;Layer_Color=9474304
;FILE_FORMAT=2:5
INCH,LZ
;TYPE=PLATED
T1F00S00C0.01500
T3F00S00C0.02976
T4F00S00C0.04331
T5F00S00C0.12598
%
T01
X00395Y-005
Y-00474
X00427
Y-005
X00595Y-0084
X0103Y-009
X0099Y-00595
Y-00565
X0096
Y-00595
X0091Y-0055
X00895Y-00116
T03
X0033Y-00046
X00441
T04
X0162157Y-00755
X0172
T05
X00125Y-0086
X01945Y-00855
Y-00075
X0013Y-00085
M30
