G04*
G04 #@! TF.GenerationSoftware,Altium Limited,Altium Designer,20.0.13 (296)*
G04*
G04 Layer_Color=32768*
%FSLAX25Y25*%
%MOIN*%
G70*
G01*
G75*
%ADD63C,0.00394*%
%ADD64C,0.00200*%
G36*
X90082Y-906D02*
Y-1004D01*
Y-1102D01*
X89943Y-1240D01*
X89748D01*
X89609Y-1102D01*
Y-1004D01*
Y-906D01*
X89748Y-768D01*
X89943D01*
X90082Y-906D01*
D02*
G37*
G36*
X166973Y-8622D02*
X161067D01*
Y-4685D01*
X166973D01*
Y-8622D01*
D02*
G37*
G36*
X106933D02*
X101027D01*
Y-4685D01*
X106933D01*
Y-8622D01*
D02*
G37*
G36*
X62328Y-9272D02*
X61108D01*
Y-9272D01*
X58352D01*
Y-5728D01*
X62328D01*
Y-9272D01*
D02*
G37*
G36*
X89845Y-9272D02*
X88352D01*
Y-9272D01*
X85872D01*
Y-5728D01*
X87088D01*
Y-5728D01*
X89845D01*
Y-9272D01*
D02*
G37*
G36*
X166973Y-32638D02*
X161067D01*
Y-28701D01*
X166973D01*
Y-32638D01*
D02*
G37*
G36*
X106933D02*
X101027D01*
Y-28701D01*
X106933D01*
Y-32638D01*
D02*
G37*
G36*
X32006Y-38803D02*
Y-38999D01*
X31868Y-39137D01*
X31673D01*
X31534Y-38999D01*
Y-38803D01*
X31673Y-38665D01*
X31868D01*
X32006Y-38803D01*
D02*
G37*
G36*
X148763Y-39528D02*
X146795D01*
Y-34803D01*
X148763D01*
Y-39528D01*
D02*
G37*
G36*
X138921D02*
X136953D01*
Y-34803D01*
X138921D01*
Y-39528D01*
D02*
G37*
G36*
X131047D02*
X129079D01*
Y-34803D01*
X131047D01*
Y-39528D01*
D02*
G37*
G36*
X121205Y-39528D02*
X119237D01*
Y-34803D01*
X121205D01*
Y-39528D01*
D02*
G37*
G36*
X167209Y-39430D02*
Y-39528D01*
Y-39625D01*
X167071Y-39764D01*
X166875D01*
X166737Y-39625D01*
Y-39528D01*
Y-39430D01*
X166875Y-39292D01*
X167071D01*
X167209Y-39430D01*
D02*
G37*
G36*
X30020Y-40083D02*
X25689D01*
Y-38901D01*
X30020D01*
Y-40083D01*
D02*
G37*
G36*
X12972D02*
X9823D01*
Y-38901D01*
X12972D01*
Y-40083D01*
D02*
G37*
G36*
X31771Y-43902D02*
X31770D01*
Y-44689D01*
X27833D01*
Y-43901D01*
X27834D01*
Y-43114D01*
X31771D01*
Y-43902D01*
D02*
G37*
G36*
Y-47052D02*
X31771D01*
Y-47839D01*
X27834D01*
Y-47052D01*
X27834D01*
Y-46264D01*
X31771D01*
Y-47052D01*
D02*
G37*
G36*
X87528Y-47740D02*
Y-47936D01*
X87389Y-48074D01*
X87194D01*
X87055Y-47936D01*
Y-47740D01*
X87194Y-47602D01*
X87389D01*
X87528Y-47740D01*
D02*
G37*
G36*
X31771Y-50004D02*
X27834D01*
Y-49216D01*
X31771D01*
Y-50004D01*
D02*
G37*
G36*
X110520Y-50787D02*
X106543D01*
Y-49213D01*
X110520D01*
Y-50787D01*
D02*
G37*
G36*
X91268D02*
X87291D01*
Y-49213D01*
X91268D01*
Y-50787D01*
D02*
G37*
G36*
X31771Y-51973D02*
X27834D01*
Y-51185D01*
X31771D01*
Y-51973D01*
D02*
G37*
G36*
Y-53941D02*
X27834D01*
Y-53153D01*
X31771D01*
Y-53941D01*
D02*
G37*
G36*
X110520Y-55787D02*
X106543D01*
Y-54213D01*
X110520D01*
Y-55787D01*
D02*
G37*
G36*
X91268D02*
X87291D01*
Y-54213D01*
X91268D01*
Y-55787D01*
D02*
G37*
G36*
X31771Y-55910D02*
X27834D01*
Y-55122D01*
X31771D01*
Y-55910D01*
D02*
G37*
G36*
X116468Y-56241D02*
Y-56437D01*
X116330Y-56575D01*
X116134D01*
X115996Y-56437D01*
Y-56241D01*
X116134Y-56103D01*
X116330D01*
X116468Y-56241D01*
D02*
G37*
G36*
X31771Y-57878D02*
X27834D01*
Y-57090D01*
X31771D01*
Y-57878D01*
D02*
G37*
G36*
X128437Y-59488D02*
X120563D01*
Y-56339D01*
X128437D01*
Y-59488D01*
D02*
G37*
G36*
X31771Y-59847D02*
X27834D01*
Y-59059D01*
X31771D01*
Y-59847D01*
D02*
G37*
G36*
X110520Y-60787D02*
X106543D01*
Y-59213D01*
X110520D01*
Y-60787D01*
D02*
G37*
G36*
X91268D02*
X87291D01*
Y-59213D01*
X91268D01*
Y-60787D01*
D02*
G37*
G36*
X31771Y-61814D02*
X27834D01*
Y-61026D01*
X31771D01*
Y-61814D01*
D02*
G37*
G36*
Y-63784D02*
X27834D01*
Y-62996D01*
X31771D01*
Y-63784D01*
D02*
G37*
G36*
X103630Y-63996D02*
X94181D01*
Y-51004D01*
X103630D01*
Y-63996D01*
D02*
G37*
G36*
X110520Y-65787D02*
X106543D01*
Y-64213D01*
X110520D01*
Y-65787D01*
D02*
G37*
G36*
X91268D02*
X87291D01*
Y-64213D01*
X91268D01*
Y-65787D01*
D02*
G37*
G36*
X31771Y-65948D02*
X27834D01*
Y-65161D01*
X31771D01*
Y-65948D01*
D02*
G37*
G36*
Y-66737D02*
X27834D01*
Y-65949D01*
X31771D01*
Y-66737D01*
D02*
G37*
G36*
X31771Y-69098D02*
X31771D01*
Y-69886D01*
X27834D01*
Y-69098D01*
X27834D01*
Y-68311D01*
X31771D01*
Y-69098D01*
D02*
G37*
G36*
X128437Y-73661D02*
X120563D01*
Y-70512D01*
X128437D01*
Y-73661D01*
D02*
G37*
G36*
X30020Y-74099D02*
X25689D01*
Y-72917D01*
X30020D01*
Y-74099D01*
D02*
G37*
G36*
X12972D02*
X9823D01*
Y-72917D01*
X12972D01*
Y-74099D01*
D02*
G37*
G36*
X57461Y-77110D02*
X52539D01*
Y-75732D01*
X57461D01*
Y-77110D01*
D02*
G37*
G36*
X173004Y-73998D02*
X173502Y-74497D01*
X173772Y-75148D01*
Y-75500D01*
Y-75852D01*
X173502Y-76504D01*
X173004Y-77002D01*
X172353Y-77272D01*
X171648D01*
X170997Y-77002D01*
X170498Y-76504D01*
X170229Y-75852D01*
Y-75500D01*
Y-75148D01*
X170498Y-74497D01*
X170997Y-73998D01*
X171648Y-73728D01*
X172353D01*
X173004Y-73998D01*
D02*
G37*
G36*
X163161D02*
X163659Y-74497D01*
X163929Y-75148D01*
Y-75500D01*
Y-75852D01*
X163659Y-76504D01*
X163161Y-77002D01*
X162510Y-77272D01*
X161805D01*
X161154Y-77002D01*
X160655Y-76504D01*
X160386Y-75852D01*
Y-75500D01*
Y-75148D01*
X160655Y-74497D01*
X161154Y-73998D01*
X161805Y-73728D01*
X162510D01*
X163161Y-73998D01*
D02*
G37*
G36*
X78461Y-77272D02*
X73539D01*
Y-75894D01*
X78461D01*
Y-77272D01*
D02*
G37*
G36*
X68197Y-75796D02*
Y-75992D01*
X68059Y-76130D01*
X67961D01*
Y-77272D01*
X63039D01*
Y-75894D01*
X67725D01*
Y-75796D01*
X67863Y-75658D01*
X68059D01*
X68197Y-75796D01*
D02*
G37*
G36*
X47197D02*
Y-75992D01*
X47059Y-76130D01*
X46961D01*
Y-77272D01*
X42039D01*
Y-75894D01*
X46725D01*
Y-75796D01*
X46863Y-75658D01*
X47059D01*
X47197Y-75796D01*
D02*
G37*
G36*
X92461Y-78272D02*
X87539D01*
Y-76894D01*
X92461D01*
Y-78272D01*
D02*
G37*
G36*
X67961Y-83768D02*
X63039D01*
Y-82390D01*
X67961D01*
Y-83768D01*
D02*
G37*
G36*
X46961D02*
X42039D01*
Y-82390D01*
X46961D01*
Y-83768D01*
D02*
G37*
G36*
X57461Y-83606D02*
X52775D01*
Y-83704D01*
X52637Y-83842D01*
X52441D01*
X52303Y-83704D01*
Y-83508D01*
X52441Y-83370D01*
X52539D01*
Y-82228D01*
X57461D01*
Y-83606D01*
D02*
G37*
G36*
X78461Y-83768D02*
X73775D01*
Y-83866D01*
X73637Y-84004D01*
X73441D01*
X73303Y-83866D01*
Y-83670D01*
X73441Y-83532D01*
X73539D01*
Y-82390D01*
X78461D01*
Y-83768D01*
D02*
G37*
G36*
X92461Y-84768D02*
X87775D01*
Y-84866D01*
X87637Y-85004D01*
X87441D01*
X87303Y-84866D01*
Y-84670D01*
X87441Y-84532D01*
X87539D01*
Y-83390D01*
X92461D01*
Y-84768D01*
D02*
G37*
G36*
X152051Y-106217D02*
Y-106315D01*
Y-106413D01*
X151913Y-106551D01*
X151717D01*
X151579Y-106413D01*
Y-106315D01*
Y-106217D01*
X151717Y-106079D01*
X151913D01*
X152051Y-106217D01*
D02*
G37*
D63*
X170031Y-52500D02*
X173969D01*
X172000Y-54469D02*
Y-50532D01*
X164126Y-61949D02*
Y-43051D01*
X179874Y-61949D02*
Y-43051D01*
X164126Y-61949D02*
X179874D01*
X164126Y-43051D02*
X179874D01*
X178500Y-40968D02*
Y-37031D01*
X176532Y-39000D02*
X180468D01*
X172988Y-42150D02*
X184012D01*
X172988Y-35850D02*
X184012D01*
Y-42150D02*
Y-35850D01*
X172988Y-42150D02*
Y-35850D01*
X142032Y-84000D02*
X145968D01*
X144000Y-85969D02*
Y-82032D01*
X147150Y-89512D02*
Y-78488D01*
X140850Y-89512D02*
Y-78488D01*
X147150D01*
X140850Y-89512D02*
X147150D01*
X60260Y-38110D02*
X67740D01*
X60260Y-51890D02*
X67740D01*
Y-38110D01*
X60260Y-51890D02*
Y-38110D01*
X64000Y-46968D02*
Y-43031D01*
X62032Y-45000D02*
X65969D01*
X153532Y-59500D02*
X157468D01*
X155500Y-61468D02*
Y-57531D01*
X152350Y-65012D02*
Y-53988D01*
X158650Y-65012D02*
Y-53988D01*
X152350Y-65012D02*
X158650D01*
X152350Y-53988D02*
X158650D01*
X145031Y-59500D02*
X148969D01*
X147000Y-61468D02*
Y-57531D01*
X143850Y-65012D02*
Y-53988D01*
X150150Y-65012D02*
Y-53988D01*
X143850Y-65012D02*
X150150D01*
X143850Y-53988D02*
X150150D01*
X136531Y-59500D02*
X140469D01*
X138500Y-61468D02*
Y-57531D01*
X135350Y-65012D02*
Y-53988D01*
X141650Y-65012D02*
Y-53988D01*
X135350Y-65012D02*
X141650D01*
X135350Y-53988D02*
X141650D01*
X51953Y-33968D02*
Y-30031D01*
X49984Y-32000D02*
X53921D01*
X46441Y-28850D02*
X57465D01*
X46441Y-35150D02*
X57465D01*
X46441D02*
Y-28850D01*
X57465Y-35150D02*
Y-28850D01*
X45165Y-51890D02*
X52646D01*
X45165Y-38110D02*
X52646D01*
X45165Y-51890D02*
Y-38110D01*
X52646Y-51890D02*
Y-38110D01*
X48906Y-46968D02*
Y-43031D01*
X46937Y-45000D02*
X50874D01*
X118032Y-85000D02*
X121968D01*
X120000Y-86968D02*
Y-83031D01*
X116850Y-90512D02*
Y-79488D01*
X123150Y-90512D02*
Y-79488D01*
X116850Y-90512D02*
X123150D01*
X116850Y-79488D02*
X123150D01*
X129260Y-77610D02*
X136740D01*
X129260Y-91390D02*
X136740D01*
Y-77610D01*
X129260Y-91390D02*
Y-77610D01*
X133000Y-86468D02*
Y-82531D01*
X131032Y-84500D02*
X134968D01*
X113390Y-80240D02*
Y-72760D01*
X99610Y-80240D02*
Y-72760D01*
Y-80240D02*
X113390D01*
X99610Y-72760D02*
X113390D01*
X104532Y-76500D02*
X108468D01*
X106500Y-78469D02*
Y-74532D01*
X41472Y-68740D02*
Y-61260D01*
X55252Y-68740D02*
Y-61260D01*
X41472D02*
X55252D01*
X41472Y-68740D02*
X55252D01*
X46394Y-65000D02*
X50331D01*
X48362Y-66969D02*
Y-63032D01*
X62610Y-68740D02*
Y-61260D01*
X76390Y-68740D02*
Y-61260D01*
X62610D02*
X76390D01*
X62610Y-68740D02*
X76390D01*
X67532Y-65000D02*
X71469D01*
X69500Y-66969D02*
Y-63032D01*
X113390Y-89740D02*
Y-82260D01*
X99610Y-89740D02*
Y-82260D01*
Y-89740D02*
X113390D01*
X99610Y-82260D02*
X113390D01*
X104532Y-86000D02*
X108468D01*
X106500Y-87968D02*
Y-84031D01*
X74937Y-45787D02*
X78874D01*
X76906Y-47756D02*
Y-43819D01*
X73756Y-51299D02*
Y-40276D01*
X80055Y-51299D02*
Y-40276D01*
X73756Y-51299D02*
X80055D01*
X73756Y-40276D02*
X80055D01*
D64*
X116232Y-73661D02*
X132768D01*
X116232D02*
Y-56339D01*
X132768D01*
Y-73661D02*
Y-56339D01*
X105850Y-35591D02*
X162150D01*
X105850D02*
Y3779D01*
X162150D01*
Y-35591D02*
Y3779D01*
X151815Y-71957D02*
X182343D01*
Y-106315D02*
Y-71957D01*
X151815Y-106315D02*
X182343D01*
X151815D02*
Y-71957D01*
X905Y-38901D02*
X30629D01*
Y-74098D02*
Y-38901D01*
X905Y-74098D02*
X30629D01*
X905D02*
Y-38901D01*
X92461Y-84768D02*
Y-76894D01*
X87540D02*
X92461D01*
X87540Y-84768D02*
Y-76894D01*
Y-84768D02*
X92461D01*
X91228Y-47854D02*
X106583D01*
X91228Y-67146D02*
Y-47854D01*
Y-67146D02*
X106583D01*
Y-47854D01*
X57461Y-83606D02*
Y-75732D01*
X52540D02*
X57461D01*
X52540Y-83606D02*
Y-75732D01*
Y-83606D02*
X57461D01*
X42039Y-83768D02*
Y-75894D01*
Y-83768D02*
X46960D01*
Y-75894D01*
X42039D02*
X46960D01*
X85911Y-13996D02*
Y-1004D01*
X62289Y-13996D02*
X85911D01*
X62289D02*
Y-1004D01*
X85911D01*
X78461Y-83768D02*
Y-75894D01*
X73540D02*
X78461D01*
X73540Y-83768D02*
Y-75894D01*
Y-83768D02*
X78461D01*
X63039Y-83768D02*
Y-75894D01*
Y-83768D02*
X67960D01*
Y-75894D01*
X63039D02*
X67960D01*
M02*
