G04*
G04 #@! TF.GenerationSoftware,Altium Limited,Altium Designer,20.0.13 (296)*
G04*
G04 Layer_Color=8388736*
%FSLAX25Y25*%
%MOIN*%
G70*
G01*
G75*
%ADD28R,0.09147X0.06312*%
%ADD29R,0.03162X0.06509*%
%ADD30R,0.04422X0.08674*%
%ADD31R,0.14580X0.08674*%
%ADD32R,0.05131X0.06312*%
%ADD33R,0.06312X0.05131*%
%ADD34R,0.05512X0.01575*%
%ADD35R,0.06312X0.05524*%
%ADD36R,0.05721X0.04737*%
%ADD37R,0.05524X0.06312*%
%ADD38R,0.10249X0.13792*%
%ADD39R,0.05524X0.03162*%
%ADD40R,0.08280X0.06706*%
%ADD41O,0.06800X0.05800*%
%ADD42C,0.07887*%
%ADD43O,0.07887X0.04737*%
%ADD44O,0.08674X0.04737*%
%ADD45C,0.02800*%
%ADD46C,0.14186*%
%ADD47C,0.03300*%
D28*
X124500Y-57016D02*
D03*
Y-72984D02*
D03*
D29*
X172000Y-57126D02*
D03*
X168260Y-47874D02*
D03*
X175740D02*
D03*
D30*
X147779Y-38347D02*
D03*
X137937D02*
D03*
X130063D02*
D03*
X120221D02*
D03*
D31*
X103980Y-30670D02*
D03*
Y-6654D02*
D03*
X164020D02*
D03*
Y-30670D02*
D03*
D32*
X181453Y-39000D02*
D03*
X175547D02*
D03*
X49000Y-32000D02*
D03*
X54905D02*
D03*
D33*
X144000Y-81047D02*
D03*
Y-86953D02*
D03*
X155500Y-62453D02*
D03*
Y-56547D02*
D03*
X147000Y-62453D02*
D03*
Y-56547D02*
D03*
X138500Y-62453D02*
D03*
Y-56547D02*
D03*
X120000Y-87953D02*
D03*
Y-82047D02*
D03*
X76906Y-48740D02*
D03*
Y-42835D02*
D03*
D34*
X30413Y-43311D02*
D03*
Y-44492D02*
D03*
Y-46461D02*
D03*
Y-47642D02*
D03*
Y-49610D02*
D03*
Y-51579D02*
D03*
Y-53547D02*
D03*
Y-55516D02*
D03*
Y-57484D02*
D03*
Y-59453D02*
D03*
Y-63390D02*
D03*
Y-68508D02*
D03*
Y-69689D02*
D03*
Y-61420D02*
D03*
X30413Y-65358D02*
D03*
Y-66539D02*
D03*
D35*
X64000Y-41457D02*
D03*
Y-48543D02*
D03*
X48906D02*
D03*
Y-41457D02*
D03*
X133000Y-80957D02*
D03*
Y-88043D02*
D03*
D36*
X90000Y-85162D02*
D03*
Y-76500D02*
D03*
X55000Y-84000D02*
D03*
Y-75338D02*
D03*
X44500Y-75500D02*
D03*
Y-84162D02*
D03*
X76000D02*
D03*
Y-75500D02*
D03*
X65500D02*
D03*
Y-84162D02*
D03*
D37*
X110043Y-76500D02*
D03*
X102957D02*
D03*
X44819Y-65000D02*
D03*
X51906D02*
D03*
X65957Y-65000D02*
D03*
X73043D02*
D03*
X110043Y-86000D02*
D03*
X102957D02*
D03*
D38*
X98905Y-57500D02*
D03*
D39*
X110355Y-50000D02*
D03*
Y-55000D02*
D03*
Y-60000D02*
D03*
Y-65000D02*
D03*
X87455D02*
D03*
Y-60000D02*
D03*
Y-55000D02*
D03*
Y-50000D02*
D03*
D40*
X89848Y-7500D02*
D03*
X58352D02*
D03*
D41*
X44100Y-4600D02*
D03*
X33000D02*
D03*
D42*
X162157Y-75500D02*
D03*
X172000D02*
D03*
D43*
X11397Y-39492D02*
D03*
Y-73508D02*
D03*
D44*
X27854D02*
D03*
Y-39492D02*
D03*
D45*
X42700Y-50000D02*
D03*
X39500D02*
D03*
X42700Y-47400D02*
D03*
X39500D02*
D03*
X89500Y-11600D02*
D03*
X96000Y-56500D02*
D03*
X99000D02*
D03*
Y-59500D02*
D03*
X103000Y-90000D02*
D03*
X96000Y-59500D02*
D03*
D46*
X194500Y-7500D02*
D03*
Y-85500D02*
D03*
X13000Y-8500D02*
D03*
X12500Y-86000D02*
D03*
D47*
X91000Y-55000D02*
D03*
X59500Y-84000D02*
D03*
M02*
