G04*
G04 #@! TF.GenerationSoftware,Altium Limited,Altium Designer,20.0.13 (296)*
G04*
G04 Layer_Physical_Order=2*
G04 Layer_Color=16711680*
%FSLAX25Y25*%
%MOIN*%
G70*
G01*
G75*
%ADD50C,0.01500*%
%ADD52O,0.06000X0.05000*%
%ADD53C,0.07087*%
%ADD54O,0.07087X0.03937*%
%ADD55O,0.07874X0.03937*%
%ADD56C,0.02000*%
%ADD57C,0.13386*%
%ADD58C,0.02500*%
G36*
X12000Y1000D02*
X194500Y1000D01*
X195362Y975D01*
X197043Y591D01*
X198616Y-114D01*
X200022Y-1113D01*
X201206Y-2366D01*
X202123Y-3827D01*
X202737Y-5438D01*
X203025Y-7138D01*
X203000Y-8000D01*
X203000D01*
Y-89000D01*
Y-89492D01*
X202808Y-90459D01*
X202431Y-91368D01*
X201884Y-92187D01*
X201187Y-92884D01*
X200368Y-93431D01*
X199459Y-93808D01*
X198493Y-94000D01*
X9500D01*
X9008Y-94000D01*
X8042Y-93808D01*
X7132Y-93431D01*
X6313Y-92884D01*
X5616Y-92187D01*
X5069Y-91368D01*
X4692Y-90459D01*
X4500Y-89492D01*
Y-89000D01*
X4500D01*
X4500Y-6000D01*
X4525Y-5286D01*
X4851Y-3895D01*
X5443Y-2594D01*
X6278Y-1434D01*
X7323Y-459D01*
X8537Y293D01*
X9876Y794D01*
X11286Y1025D01*
X12000Y1000D01*
D02*
G37*
%LPC*%
G36*
X194500Y-172D02*
X193070Y-313D01*
X191696Y-730D01*
X190429Y-1407D01*
X189318Y-2318D01*
X188407Y-3429D01*
X187730Y-4696D01*
X187313Y-6070D01*
X187172Y-7500D01*
X187313Y-8930D01*
X187730Y-10304D01*
X188407Y-11571D01*
X189318Y-12682D01*
X190429Y-13593D01*
X191696Y-14270D01*
X193070Y-14687D01*
X194500Y-14828D01*
X195930Y-14687D01*
X197304Y-14270D01*
X198571Y-13593D01*
X199682Y-12682D01*
X200593Y-11571D01*
X201270Y-10304D01*
X201687Y-8930D01*
X201828Y-7500D01*
X201687Y-6070D01*
X201270Y-4696D01*
X200593Y-3429D01*
X199682Y-2318D01*
X198571Y-1407D01*
X197304Y-730D01*
X195930Y-313D01*
X194500Y-172D01*
D02*
G37*
G36*
X13000Y-1172D02*
X11570Y-1313D01*
X10196Y-1730D01*
X8929Y-2407D01*
X7818Y-3318D01*
X6907Y-4429D01*
X6230Y-5696D01*
X5813Y-7070D01*
X5672Y-8500D01*
X5813Y-9930D01*
X6230Y-11304D01*
X6907Y-12571D01*
X7818Y-13682D01*
X8929Y-14593D01*
X10196Y-15270D01*
X11570Y-15687D01*
X13000Y-15828D01*
X14430Y-15687D01*
X15804Y-15270D01*
X17071Y-14593D01*
X18182Y-13682D01*
X19093Y-12571D01*
X19770Y-11304D01*
X20187Y-9930D01*
X20328Y-8500D01*
X20187Y-7070D01*
X19770Y-5696D01*
X19093Y-4429D01*
X18182Y-3318D01*
X17071Y-2407D01*
X15804Y-1730D01*
X14430Y-1313D01*
X13000Y-1172D01*
D02*
G37*
G36*
X144009Y-25882D02*
X143283D01*
X143202Y-25916D01*
X143115Y-25904D01*
X142414Y-26092D01*
X142345Y-26146D01*
X142258Y-26157D01*
X141629Y-26520D01*
X141576Y-26590D01*
X141495Y-26623D01*
X140981Y-27136D01*
X140948Y-27217D01*
X140878Y-27271D01*
X140515Y-27899D01*
X140504Y-27986D01*
X140451Y-28056D01*
X140263Y-28757D01*
X140274Y-28844D01*
X140241Y-28925D01*
Y-29288D01*
Y-29650D01*
X140274Y-29732D01*
X140263Y-29818D01*
X140451Y-30519D01*
X140504Y-30589D01*
X140515Y-30676D01*
X140878Y-31304D01*
X140948Y-31358D01*
X140981Y-31439D01*
X141495Y-31952D01*
X141576Y-31986D01*
X141629Y-32055D01*
X142257Y-32418D01*
X142345Y-32430D01*
X142414Y-32483D01*
X143115Y-32671D01*
X143202Y-32659D01*
X143283Y-32693D01*
X144009D01*
X144090Y-32659D01*
X144177Y-32671D01*
X144878Y-32483D01*
X144948Y-32430D01*
X145034Y-32418D01*
X145663Y-32055D01*
X145716Y-31986D01*
X145797Y-31952D01*
X146310Y-31439D01*
X146344Y-31358D01*
X146414Y-31304D01*
X146776Y-30676D01*
X146788Y-30589D01*
X146841Y-30519D01*
X147029Y-29818D01*
X147018Y-29732D01*
X147051Y-29650D01*
Y-29288D01*
Y-28925D01*
X147018Y-28844D01*
X147029Y-28757D01*
X146841Y-28056D01*
X146788Y-27986D01*
X146776Y-27899D01*
X146414Y-27271D01*
X146344Y-27217D01*
X146310Y-27136D01*
X145797Y-26623D01*
X145716Y-26590D01*
X145663Y-26520D01*
X145035Y-26157D01*
X144948Y-26146D01*
X144878Y-26092D01*
X144177Y-25904D01*
X144090Y-25916D01*
X144009Y-25882D01*
D02*
G37*
G36*
X124717D02*
X123991D01*
X123910Y-25916D01*
X123823Y-25904D01*
X123122Y-26092D01*
X123053Y-26146D01*
X122966Y-26157D01*
X122337Y-26520D01*
X122284Y-26590D01*
X122203Y-26623D01*
X121689Y-27136D01*
X121656Y-27217D01*
X121586Y-27271D01*
X121223Y-27899D01*
X121212Y-27986D01*
X121159Y-28056D01*
X120971Y-28757D01*
X120982Y-28844D01*
X120949Y-28925D01*
Y-29288D01*
Y-29650D01*
X120982Y-29732D01*
X120971Y-29818D01*
X121159Y-30519D01*
X121212Y-30589D01*
X121223Y-30676D01*
X121586Y-31304D01*
X121656Y-31358D01*
X121689Y-31439D01*
X122203Y-31952D01*
X122284Y-31986D01*
X122337Y-32055D01*
X122966Y-32418D01*
X123053Y-32430D01*
X123122Y-32483D01*
X123823Y-32671D01*
X123910Y-32659D01*
X123991Y-32693D01*
X124717D01*
X124798Y-32659D01*
X124885Y-32671D01*
X125586Y-32483D01*
X125655Y-32430D01*
X125742Y-32418D01*
X126371Y-32055D01*
X126424Y-31986D01*
X126505Y-31952D01*
X127018Y-31439D01*
X127052Y-31358D01*
X127122Y-31304D01*
X127485Y-30676D01*
X127496Y-30589D01*
X127549Y-30519D01*
X127737Y-29818D01*
X127726Y-29732D01*
X127759Y-29650D01*
Y-29288D01*
Y-28925D01*
X127726Y-28844D01*
X127737Y-28757D01*
X127549Y-28056D01*
X127496Y-27986D01*
X127485Y-27899D01*
X127122Y-27271D01*
X127052Y-27217D01*
X127018Y-27136D01*
X126505Y-26623D01*
X126424Y-26590D01*
X126371Y-26520D01*
X125742Y-26157D01*
X125655Y-26146D01*
X125586Y-26092D01*
X124885Y-25904D01*
X124798Y-25916D01*
X124717Y-25882D01*
D02*
G37*
G36*
X26041Y-43095D02*
X25493D01*
X25374Y-43144D01*
X25245D01*
X24738Y-43354D01*
X24647Y-43445D01*
X24528Y-43494D01*
X24140Y-43882D01*
X24091Y-44001D01*
X23999Y-44093D01*
X23789Y-44599D01*
Y-44729D01*
X23740Y-44848D01*
Y-45396D01*
X23789Y-45515D01*
Y-45645D01*
X23999Y-46151D01*
X24091Y-46242D01*
X24140Y-46362D01*
X24528Y-46749D01*
X24647Y-46799D01*
X24738Y-46890D01*
X25245Y-47100D01*
X25374D01*
X25493Y-47149D01*
X26041D01*
X26161Y-47100D01*
X26290D01*
X26796Y-46890D01*
X26888Y-46799D01*
X27007Y-46749D01*
X27395Y-46362D01*
X27444Y-46242D01*
X27536Y-46151D01*
X27745Y-45645D01*
Y-45515D01*
X27795Y-45396D01*
Y-44848D01*
X27745Y-44728D01*
Y-44599D01*
X27536Y-44093D01*
X27444Y-44002D01*
X27395Y-43882D01*
X27007Y-43495D01*
X26888Y-43445D01*
X26796Y-43354D01*
X26290Y-43144D01*
X26161D01*
X26041Y-43095D01*
D02*
G37*
G36*
X41700Y-850D02*
X41241Y-1041D01*
X37341Y-4941D01*
X37151Y-5400D01*
X37150Y-51300D01*
X37341Y-51759D01*
X38641Y-53059D01*
X39100Y-53250D01*
X52600Y-53249D01*
X53059Y-53059D01*
X55259Y-50859D01*
X55449Y-50400D01*
X55449Y-3800D01*
X55259Y-3341D01*
X52959Y-1041D01*
X52500Y-851D01*
X41700Y-850D01*
D02*
G37*
G36*
X91000Y-53114D02*
X90278Y-53257D01*
X89832Y-53556D01*
X89825Y-53555D01*
X89798Y-53564D01*
X89780Y-53569D01*
X89754Y-53573D01*
X89366Y-53600D01*
X89244Y-53601D01*
X89190Y-53624D01*
X62000D01*
X61473Y-53728D01*
X61294Y-53848D01*
X61027Y-54027D01*
X61027Y-54027D01*
X58527Y-56527D01*
X58228Y-56973D01*
X58124Y-57500D01*
Y-82190D01*
X58101Y-82244D01*
X58099Y-82375D01*
X58091Y-82590D01*
X58075Y-82743D01*
X58069Y-82780D01*
X58064Y-82798D01*
X58055Y-82825D01*
X58056Y-82832D01*
X57757Y-83278D01*
X57614Y-84000D01*
X57757Y-84722D01*
X58166Y-85334D01*
X58778Y-85743D01*
X59500Y-85886D01*
X60222Y-85743D01*
X60834Y-85334D01*
X61243Y-84722D01*
X61386Y-84000D01*
X61243Y-83278D01*
X60944Y-82832D01*
X60945Y-82825D01*
X60936Y-82798D01*
X60931Y-82780D01*
X60927Y-82754D01*
X60900Y-82366D01*
X60899Y-82244D01*
X60876Y-82190D01*
Y-58070D01*
X62570Y-56376D01*
X89190D01*
X89244Y-56399D01*
X89375Y-56401D01*
X89590Y-56409D01*
X89743Y-56425D01*
X89780Y-56431D01*
X89798Y-56436D01*
X89825Y-56445D01*
X89832Y-56444D01*
X90278Y-56743D01*
X91000Y-56886D01*
X91722Y-56743D01*
X92334Y-56334D01*
X92743Y-55722D01*
X92886Y-55000D01*
X92743Y-54278D01*
X92334Y-53666D01*
X91722Y-53257D01*
X91000Y-53114D01*
D02*
G37*
G36*
X26041Y-65851D02*
X25493D01*
X25374Y-65900D01*
X25245D01*
X24738Y-66110D01*
X24647Y-66201D01*
X24528Y-66250D01*
X24140Y-66638D01*
X24091Y-66758D01*
X23999Y-66849D01*
X23789Y-67355D01*
Y-67485D01*
X23740Y-67604D01*
Y-68152D01*
X23789Y-68271D01*
Y-68401D01*
X23999Y-68907D01*
X24091Y-68998D01*
X24140Y-69118D01*
X24528Y-69505D01*
X24647Y-69555D01*
X24738Y-69646D01*
X25245Y-69856D01*
X25374D01*
X25493Y-69905D01*
X26041D01*
X26161Y-69856D01*
X26290D01*
X26796Y-69646D01*
X26888Y-69555D01*
X27007Y-69505D01*
X27395Y-69118D01*
X27444Y-68998D01*
X27536Y-68907D01*
X27745Y-68401D01*
Y-68271D01*
X27795Y-68152D01*
Y-67604D01*
X27745Y-67484D01*
Y-67355D01*
X27536Y-66849D01*
X27444Y-66758D01*
X27395Y-66638D01*
X27007Y-66251D01*
X26888Y-66201D01*
X26796Y-66110D01*
X26290Y-65900D01*
X26161D01*
X26041Y-65851D01*
D02*
G37*
G36*
X162157Y-71321D02*
X161076Y-71463D01*
X160068Y-71881D01*
X159202Y-72545D01*
X158538Y-73410D01*
X158121Y-74418D01*
X157978Y-75500D01*
X158121Y-76582D01*
X158538Y-77589D01*
X159202Y-78455D01*
X160068Y-79119D01*
X161076Y-79537D01*
X162157Y-79679D01*
X163239Y-79537D01*
X164247Y-79119D01*
X165112Y-78455D01*
X165777Y-77589D01*
X166194Y-76582D01*
X166336Y-75500D01*
X166194Y-74418D01*
X165777Y-73410D01*
X165112Y-72545D01*
X164247Y-71881D01*
X163239Y-71463D01*
X162157Y-71321D01*
D02*
G37*
G36*
X89500Y-9969D02*
X88876Y-10093D01*
X88346Y-10447D01*
X87993Y-10976D01*
X87869Y-11600D01*
X87993Y-12224D01*
X88346Y-12754D01*
X88876Y-13107D01*
X89500Y-13231D01*
X90124Y-13107D01*
X90320Y-12976D01*
X98630D01*
X101624Y-15970D01*
Y-89180D01*
X101493Y-89376D01*
X101369Y-90000D01*
X101493Y-90624D01*
X101847Y-91154D01*
X102376Y-91507D01*
X103000Y-91631D01*
X103624Y-91507D01*
X104154Y-91154D01*
X104507Y-90624D01*
X104631Y-90000D01*
X104507Y-89376D01*
X104376Y-89180D01*
Y-15400D01*
X104272Y-14873D01*
X103973Y-14427D01*
X100173Y-10627D01*
X99727Y-10328D01*
X99200Y-10224D01*
X90320D01*
X90124Y-10093D01*
X89500Y-9969D01*
D02*
G37*
G36*
X194500Y-78172D02*
X193070Y-78313D01*
X191696Y-78730D01*
X190429Y-79407D01*
X189318Y-80318D01*
X188407Y-81429D01*
X187730Y-82696D01*
X187313Y-84070D01*
X187172Y-85500D01*
X187313Y-86930D01*
X187730Y-88304D01*
X188407Y-89571D01*
X189318Y-90682D01*
X190429Y-91593D01*
X191696Y-92270D01*
X193070Y-92687D01*
X194500Y-92828D01*
X195930Y-92687D01*
X197304Y-92270D01*
X198571Y-91593D01*
X199682Y-90682D01*
X200593Y-89571D01*
X201270Y-88304D01*
X201687Y-86930D01*
X201828Y-85500D01*
X201687Y-84070D01*
X201270Y-82696D01*
X200593Y-81429D01*
X199682Y-80318D01*
X198571Y-79407D01*
X197304Y-78730D01*
X195930Y-78313D01*
X194500Y-78172D01*
D02*
G37*
G36*
X12500Y-78672D02*
X11070Y-78813D01*
X9696Y-79230D01*
X8429Y-79907D01*
X7318Y-80818D01*
X6407Y-81929D01*
X5730Y-83196D01*
X5313Y-84570D01*
X5172Y-86000D01*
X5313Y-87430D01*
X5730Y-88804D01*
X6407Y-90071D01*
X7318Y-91182D01*
X8429Y-92093D01*
X9696Y-92770D01*
X11070Y-93187D01*
X12500Y-93328D01*
X13930Y-93187D01*
X15304Y-92770D01*
X16571Y-92093D01*
X17682Y-91182D01*
X18593Y-90071D01*
X19270Y-88804D01*
X19687Y-87430D01*
X19828Y-86000D01*
X19687Y-84570D01*
X19270Y-83196D01*
X18593Y-81929D01*
X17682Y-80818D01*
X16571Y-79907D01*
X15304Y-79230D01*
X13930Y-78813D01*
X12500Y-78672D01*
D02*
G37*
%LPD*%
G36*
X52500Y-1500D02*
X54800Y-3800D01*
X54800Y-50400D01*
X52600Y-52600D01*
X39100Y-52600D01*
X37800Y-51300D01*
X37800Y-5400D01*
X41700Y-1500D01*
X52500Y-1500D01*
D02*
G37*
G36*
X90107Y-55875D02*
X90077Y-55851D01*
X90034Y-55830D01*
X89979Y-55811D01*
X89911Y-55795D01*
X89832Y-55781D01*
X89636Y-55761D01*
X89391Y-55751D01*
X89250Y-55750D01*
Y-54250D01*
X89391Y-54249D01*
X89832Y-54219D01*
X89911Y-54205D01*
X89979Y-54189D01*
X90034Y-54170D01*
X90077Y-54149D01*
X90107Y-54125D01*
Y-55875D01*
D02*
G37*
G36*
X60251Y-82391D02*
X60281Y-82832D01*
X60295Y-82911D01*
X60311Y-82979D01*
X60330Y-83034D01*
X60351Y-83077D01*
X60375Y-83107D01*
X58625D01*
X58649Y-83077D01*
X58670Y-83034D01*
X58689Y-82979D01*
X58705Y-82911D01*
X58719Y-82832D01*
X58739Y-82636D01*
X58749Y-82391D01*
X58750Y-82250D01*
X60250D01*
X60251Y-82391D01*
D02*
G37*
D50*
X89500Y-11600D02*
X99200D01*
X103000Y-90000D02*
Y-15400D01*
X99200Y-11600D02*
X103000Y-15400D01*
X59500Y-84000D02*
Y-57500D01*
X62000Y-55000D02*
X91000D01*
X59500Y-57500D02*
X62000Y-55000D01*
D52*
X44100Y-4600D02*
D03*
X33000D02*
D03*
D53*
X162157Y-75500D02*
D03*
X172000D02*
D03*
D54*
X11397Y-39492D02*
D03*
Y-73508D02*
D03*
D55*
X27854D02*
D03*
Y-39492D02*
D03*
D56*
X42700Y-50000D02*
D03*
X39500D02*
D03*
X42700Y-47400D02*
D03*
X39500D02*
D03*
X89500Y-11600D02*
D03*
X96000Y-56500D02*
D03*
X99000D02*
D03*
Y-59500D02*
D03*
X103000Y-90000D02*
D03*
X96000Y-59500D02*
D03*
D57*
X194500Y-7500D02*
D03*
Y-85500D02*
D03*
X13000Y-8500D02*
D03*
X12500Y-86000D02*
D03*
D58*
X91000Y-55000D02*
D03*
X59500Y-84000D02*
D03*
M02*
