G04*
G04 #@! TF.GenerationSoftware,Altium Limited,Altium Designer,20.0.13 (296)*
G04*
G04 Layer_Color=16711935*
%FSLAX25Y25*%
%MOIN*%
G70*
G01*
G75*
%ADD63C,0.00394*%
D63*
X166095Y-55256D02*
Y-49744D01*
X177905Y-55256D02*
Y-49744D01*
X166095Y-55256D02*
X177905D01*
X166095Y-49744D02*
X177905D01*
X174169Y-41854D02*
X182831D01*
X174169Y-36146D02*
X182831D01*
Y-41854D02*
Y-36146D01*
X174169Y-41854D02*
Y-36146D01*
X146854Y-88331D02*
Y-79669D01*
X141146Y-88331D02*
Y-79669D01*
X146854D01*
X141146Y-88331D02*
X146854D01*
X61244Y-40768D02*
X66756D01*
X61244Y-49232D02*
X66756D01*
Y-40768D01*
X61244Y-49232D02*
Y-40768D01*
X152646Y-63831D02*
Y-55169D01*
X158354Y-63831D02*
Y-55169D01*
X152646Y-63831D02*
X158354D01*
X152646Y-55169D02*
X158354D01*
X144146Y-63831D02*
Y-55169D01*
X149854Y-63831D02*
Y-55169D01*
X144146Y-63831D02*
X149854D01*
X144146Y-55169D02*
X149854D01*
X135646Y-63831D02*
Y-55169D01*
X141354Y-63831D02*
Y-55169D01*
X135646Y-63831D02*
X141354D01*
X135646Y-55169D02*
X141354D01*
X47622Y-29146D02*
X56283D01*
X47622Y-34854D02*
X56283D01*
X47622D02*
Y-29146D01*
X56283Y-34854D02*
Y-29146D01*
X46150Y-49232D02*
X51661D01*
X46150Y-40768D02*
X51661D01*
X46150Y-49232D02*
Y-40768D01*
X51661Y-49232D02*
Y-40768D01*
X117146Y-89331D02*
Y-80669D01*
X122854Y-89331D02*
Y-80669D01*
X117146Y-89331D02*
X122854D01*
X117146Y-80669D02*
X122854D01*
X130244Y-80268D02*
X135756D01*
X130244Y-88732D02*
X135756D01*
Y-80268D01*
X130244Y-88732D02*
Y-80268D01*
X110732Y-79256D02*
Y-73744D01*
X102268Y-79256D02*
Y-73744D01*
Y-79256D02*
X110732D01*
X102268Y-73744D02*
X110732D01*
X44130Y-67756D02*
Y-62244D01*
X52595Y-67756D02*
Y-62244D01*
X44130D02*
X52595D01*
X44130Y-67756D02*
X52595D01*
X65268Y-67756D02*
Y-62244D01*
X73732Y-67756D02*
Y-62244D01*
X65268D02*
X73732D01*
X65268Y-67756D02*
X73732D01*
X110732Y-88756D02*
Y-83244D01*
X102268Y-88756D02*
Y-83244D01*
Y-88756D02*
X110732D01*
X102268Y-83244D02*
X110732D01*
X74051Y-50118D02*
Y-41457D01*
X79760Y-50118D02*
Y-41457D01*
X74051Y-50118D02*
X79760D01*
X74051Y-41457D02*
X79760D01*
M02*
